<svg width="565" height="404" viewBox="0 0 565 404" fill="none" xmlns="http://www.w3.org/2000/svg">
<path d="M93.6252 116.737L85.3844 136.305C73.4809 128.638 56.8848 120.513 35.8248 120.628H26.3249L26.5539 183.109L82.6374 182.881L75.4267 196.956C66.1557 190.891 53.7945 186.771 42.5777 186.542H26.5539L26.7828 252.572H13.048L12.5902 131.27C10.4155 122.344 7.66857 118.911 1.37347 117.08L93.6252 116.737Z" fill="#5A3D22"/>
<path d="M169.395 250.283H156.347C153.143 242.616 150.968 225.909 150.739 196.957C145.245 227.854 132.54 252.229 114.8 252.343C104.155 252.343 96.3723 245.935 96.2578 228.998C96.2578 216.639 101.523 205.539 101.408 189.976C101.408 181.279 98.8903 167.547 94.8843 161.482H109.878C112.396 166.402 114.685 173.154 114.8 180.707C114.8 201.648 102.553 217.784 102.553 234.491C102.553 243.188 107.703 247.079 114.342 247.079C137.004 247.079 150.51 201.419 150.396 161.482L163.215 161.367V192.494C163.444 216.525 165.389 239.069 169.281 250.512L169.395 250.283Z" fill="#5A3D22"/>
<path d="M177.522 239.526L184.618 226.366C196.521 237.238 208.539 247.422 221.702 247.422C229.256 247.422 233.605 242.616 233.605 235.979C233.605 214.465 180.955 206.798 180.841 177.388C180.841 166.402 189.54 161.024 203.503 160.909C213.461 160.909 225.135 164.8 239.099 173.154L232.003 186.314C223.647 176.358 211.172 165.144 198.009 165.144C190.57 165.144 185.648 168.462 185.648 173.154C185.991 190.09 240.473 198.559 240.587 229.914C240.587 244.79 230.4 251.771 216.322 251.885C206.822 251.885 191.485 247.995 177.522 239.526Z" fill="#5A3D22"/>
<path d="M286.026 207.027C286.026 179.448 303.309 160.566 326.658 160.566C350.007 160.566 367.405 179.105 367.519 206.798C367.634 234.491 350.236 253.258 327.002 253.373C303.767 253.487 286.141 234.834 286.141 207.027H286.026ZM336.845 248.109C349.092 244.447 354.814 233.347 354.7 218.241C354.7 212.405 353.67 205.997 352.068 199.131C346.917 177.846 336.959 164.457 323.568 164.457C321.393 164.457 319.104 164.8 316.586 165.487C304.339 169.263 298.616 180.249 298.731 195.469C298.731 201.19 299.761 207.713 301.363 214.579C306.514 235.75 316.586 249.253 330.092 249.139C332.152 249.139 334.441 248.795 336.73 248.109H336.845ZM320.821 145.461C327.002 132.301 328.833 116.852 328.833 116.852H336.73C339.477 116.852 340.736 118.111 340.851 120.285C340.851 121.658 340.393 123.489 339.477 125.549C336.158 132.644 327.345 140.883 324.026 145.461H320.821Z" fill="#5A3D22"/>
<path d="M453.018 251.084H437.223C434.476 246.049 432.072 239.412 432.072 231.745C432.072 210.803 445.235 194.668 445.12 178.075C445.12 169.263 439.627 165.372 432.53 165.487C408.38 165.487 393.501 210.918 393.615 250.97V251.313H380.796V176.015C380.796 166.746 375.989 162.168 369.694 160.337H393.615L393.501 216.41C399.338 185.055 413.073 160.108 432.187 160.108C443.518 160.108 451.187 166.517 451.187 183.453C451.187 195.812 446.38 206.798 446.38 222.476C446.38 231.287 448.783 244.905 453.018 251.084Z" fill="#5A3D22"/>
<path d="M85.8422 296.172C85.9567 332.905 59.0594 356.822 24.3792 356.937V353.389C48.0716 353.389 72.1075 331.99 71.8786 296.172C71.8786 281.638 66.2702 272.255 56.198 272.255C30.7887 272.255 24.1503 310.934 24.1503 327.527L24.3792 403.283H11.6745L11.2167 283.469C11.2167 274.2 6.2951 269.623 0 267.792H23.9214L24.0358 303.152C28.843 284.385 39.8308 265.846 60.8907 265.732C74.0532 265.732 85.7278 275.802 85.7278 296.057L85.8422 296.172Z" fill="#5A3D22"/>
<path d="M91.794 334.278C91.6795 291.365 156.233 308.416 156.92 283.126V282.325C156.92 274.772 151.197 269.394 143.643 269.394C130.48 269.394 118.577 279.922 106.673 290.793L99.577 277.633C113.426 269.165 128.763 265.16 138.263 265.16C152.341 265.16 160.697 271.568 160.697 288.39C160.697 300.749 156.462 311.735 156.576 327.412C156.576 336.224 158.98 349.842 163.215 356.021H147.42C144.558 350.643 142.269 345.836 142.269 339.085C137.462 349.041 129.45 357.852 115.601 357.852C101.752 357.852 91.794 350.757 91.794 334.164V334.278ZM143.07 330.731C145.36 317.457 152.341 305.784 155.546 293.54C142.155 305.67 105.071 301.321 105.071 331.189C105.071 341.602 109.993 351.1 121.438 351.1C131.854 351.1 138.836 342.174 142.956 330.731H143.07Z" fill="#5A3D22"/>
<path d="M248.485 323.522C245.623 337.826 234.635 357.738 210.943 357.852C190.112 357.852 172.371 341.831 172.257 311.506C172.257 283.927 188.51 265.16 211.744 265.045C221.702 265.045 233.033 268.936 246.997 277.29L239.9 290.45C231.545 280.494 221.015 268.936 207.738 269.051C194.461 269.165 184.732 282.211 184.847 301.779C184.847 325.467 193.431 349.27 217.581 349.27C234.864 349.27 242.762 333.478 245.967 322.606L248.37 323.636L248.485 323.522Z" fill="#5A3D22"/>
<path d="M360.423 264.587H384.344L384.688 355.334H371.869L371.64 280.265C371.64 270.996 366.718 266.418 360.423 264.587Z" fill="#5A3D22"/>
<path d="M472.933 322.721C470.072 337.025 459.084 356.937 435.392 357.051C414.561 357.051 396.82 341.03 396.706 310.705C396.706 283.126 412.958 264.359 436.193 264.244C446.151 264.244 457.482 268.135 471.445 276.489L464.349 289.649C455.994 279.693 445.464 268.135 432.187 268.25C418.91 268.364 409.181 281.41 409.296 300.978C409.296 324.666 417.88 348.469 442.03 348.469C459.313 348.469 467.211 332.677 470.415 321.805L472.819 322.835L472.933 322.721Z" fill="#5A3D22"/>
<path d="M482.662 310.362C482.662 282.783 499.945 263.901 523.294 263.901C546.643 263.901 564.041 282.44 564.155 310.133C564.27 337.826 546.872 356.594 523.638 356.708C500.403 356.822 482.777 338.17 482.777 310.362H482.662ZM533.481 351.444C545.728 347.782 551.45 336.682 551.336 321.576C551.336 315.74 550.306 309.332 548.704 302.466C543.553 281.181 533.595 267.792 520.204 267.792C518.029 267.792 515.74 268.135 513.222 268.822C500.975 272.598 495.252 283.584 495.367 298.804C495.367 304.526 496.283 311.048 497.999 317.914C503.15 339.085 513.222 352.588 526.728 352.474C528.788 352.474 531.077 352.131 533.366 351.444H533.481Z" fill="#5A3D22"/>
<path d="M359.393 327.03V321.766L323.225 321.881V298.65C323.225 292.585 324.369 288.237 326.773 285.49C329.291 282.744 332.953 281.371 337.875 281.371C339.935 281.371 346.917 281.371 348.176 281.714V263.748L344.971 265.121C340.279 267.181 335.357 268.325 330.321 269.469C325.285 270.614 321.05 272.902 317.731 276.564C313.038 281.714 310.634 289.267 310.749 299.337V321.995H293.695V327.259H310.863L311.436 402.672H332.724C328.261 401.299 324.598 387.452 323.225 369.486V327.145L359.164 327.03H359.393Z" fill="#5A3D22"/>
<path d="M170.701 397.142L172.304 396.799C172.532 398.172 173.105 399.316 174.02 400.118C174.936 400.919 176.195 401.262 177.683 401.262C179.285 401.262 180.43 400.919 181.346 400.232C182.261 399.545 182.605 398.63 182.605 397.485C182.605 396.341 182.261 395.54 181.46 394.968C180.773 394.396 179.858 394.052 178.828 393.824C177.797 393.595 176.767 393.366 175.623 393.137C174.593 392.908 173.677 392.45 172.876 391.649C172.189 390.848 171.731 389.818 171.731 388.445C171.731 386.957 172.304 385.699 173.448 384.669C174.593 383.639 176.081 383.067 177.912 383.067C179.629 383.067 181.002 383.524 182.147 384.554C183.177 385.584 183.864 386.843 184.093 388.331L182.49 388.674C182.376 387.53 181.803 386.614 181.117 385.813C180.43 385.012 179.285 384.669 177.912 384.669C176.424 384.669 175.394 385.012 174.478 385.699C173.677 386.385 173.219 387.301 173.219 388.331C173.219 389.361 173.563 390.162 174.364 390.734C175.165 391.306 175.966 391.649 177.111 391.878C178.141 392.107 179.171 392.336 180.316 392.565C181.346 392.794 182.261 393.251 183.062 394.167C183.749 394.968 184.207 396.112 184.207 397.6C184.207 399.202 183.635 400.461 182.376 401.491C181.117 402.521 179.629 402.978 177.569 403.093C175.623 403.093 174.02 402.521 172.761 401.491C171.617 400.461 170.816 399.088 170.587 397.371L170.701 397.142Z" fill="#5A3D22"/>
<path d="M190.159 388.903L188.671 388.445C189.358 384.898 191.647 383.181 195.653 383.067C198.056 383.067 199.773 383.753 200.918 385.012C202.062 386.271 202.635 387.987 202.635 390.276V398.859C202.635 399.774 202.749 400.346 203.092 400.69C203.321 401.033 203.779 401.147 204.466 401.147H204.809V402.75C204.695 402.75 204.466 402.75 204.237 402.75C203.321 402.75 202.635 402.521 202.062 401.948C201.49 401.376 201.147 400.575 201.147 399.316V399.088C200.46 400.346 199.544 401.376 198.4 402.063C197.141 402.749 195.767 403.093 194.279 403.093C192.333 403.093 190.845 402.635 189.815 401.605C188.785 400.575 188.213 399.202 188.213 397.485C188.213 394.281 190.273 392.336 194.623 391.764L201.147 390.848V390.162C201.147 386.5 199.315 384.669 195.653 384.669C192.562 384.669 190.846 386.042 190.273 388.903H190.159ZM201.032 392.336L194.737 393.251C192.906 393.48 191.647 393.938 190.96 394.625C190.159 395.311 189.815 396.227 189.815 397.371C189.815 398.859 190.273 399.889 191.189 400.461C192.105 401.033 193.135 401.376 194.279 401.376C196.454 401.376 198.056 400.69 199.315 399.316C200.574 397.943 201.147 396.57 201.147 394.968V392.336H201.032Z" fill="#5A3D22"/>
<path d="M210.418 387.108C211.791 384.133 214.08 382.759 217.285 382.645C219.803 382.645 221.863 383.56 223.237 385.506C224.725 387.451 225.411 389.854 225.411 392.601C225.411 395.347 224.725 397.75 223.237 399.696C221.863 401.641 219.803 402.671 217.285 402.671C214.08 402.671 211.791 401.183 210.418 398.323V402.213H208.815V373.833H210.303V387.108H210.418ZM212.134 386.65C210.99 388.252 210.418 390.198 210.418 392.601C210.418 395.004 210.99 396.949 212.249 398.551C213.393 400.154 215.11 400.955 217.056 400.955C219.116 400.955 220.833 400.154 221.978 398.551C223.122 396.949 223.809 395.004 223.809 392.601C223.809 390.198 223.237 388.252 221.978 386.65C220.719 385.048 219.116 384.247 217.056 384.247C214.996 384.247 213.393 385.048 212.249 386.65H212.134Z" fill="#5A3D22"/>
<path d="M243.953 400.118C242.351 402.063 240.291 403.093 237.773 403.093C235.255 403.093 233.08 402.177 231.592 400.118C229.99 398.172 229.188 395.769 229.188 393.137C229.188 390.505 229.99 388.102 231.478 386.042C233.08 384.097 235.14 383.067 237.658 383.067C240.176 383.067 242.351 383.982 243.839 386.042C245.327 388.102 246.242 390.391 246.242 393.023C246.242 395.655 245.441 398.058 243.953 400.118ZM232.622 387.186C231.363 388.788 230.676 390.734 230.676 393.137C230.676 395.54 231.363 397.485 232.622 399.088C233.881 400.69 235.598 401.491 237.658 401.491C239.718 401.491 241.435 400.69 242.694 399.088C243.953 397.485 244.64 395.54 244.64 393.137C244.64 390.734 243.953 388.788 242.694 387.186C241.435 385.584 239.718 384.783 237.658 384.783C235.598 384.783 233.881 385.584 232.622 387.186Z" fill="#5A3D22"/>
<path d="M259.176 383.776V385.493C259.176 385.493 258.718 385.493 258.375 385.493C256.772 385.493 255.513 386.065 254.483 387.209C253.453 388.354 252.995 389.841 252.995 391.901V403.116H251.393V384.005H252.881V387.095C253.339 386.18 254.025 385.493 254.941 384.806C255.857 384.12 257.116 383.776 258.604 383.776H259.176Z" fill="#5A3D22"/>
<path d="M275.314 396.913L276.802 397.6C276.23 399.316 275.2 400.575 273.941 401.605C272.682 402.635 271.079 403.093 269.248 403.093C266.616 403.093 264.555 402.177 263.067 400.232C261.58 398.287 260.893 395.883 260.893 393.137C260.893 390.391 261.694 388.102 263.182 386.042C264.67 384.097 266.73 383.067 269.248 383.067C271.652 383.067 273.712 383.982 275.2 385.813C276.688 387.644 277.374 389.933 277.489 392.679V393.48H262.724C262.724 395.769 263.525 397.6 264.67 399.088C265.814 400.575 267.417 401.262 269.477 401.262C270.965 401.262 272.224 400.804 273.254 400.003C274.284 399.202 275.085 398.058 275.543 396.684L275.314 396.913ZM269.248 384.783C267.417 384.783 265.929 385.47 264.67 386.843C263.525 388.216 262.839 389.933 262.61 391.993H275.772C275.658 389.818 274.971 388.102 273.826 386.729C272.682 385.47 271.194 384.783 269.248 384.783Z" fill="#5A3D22"/>
<path d="M280.808 397.142L282.411 396.799C282.639 398.172 283.212 399.316 284.127 400.118C285.043 400.919 286.302 401.262 287.79 401.262C289.392 401.262 290.537 400.919 291.453 400.232C292.368 399.545 292.712 398.63 292.712 397.485C292.712 396.341 292.368 395.54 291.567 394.968C290.88 394.396 289.965 394.052 288.935 393.824C287.904 393.595 286.874 393.366 285.73 393.137C284.585 392.908 283.784 392.45 282.983 391.649C282.296 390.848 281.838 389.818 281.838 388.445C281.838 386.957 282.411 385.699 283.555 384.669C284.7 383.639 286.188 383.067 288.019 383.067C289.736 383.067 291.109 383.524 292.254 384.554C293.284 385.584 293.971 386.843 294.2 388.331L292.597 388.674C292.483 387.53 291.91 386.614 291.224 385.813C290.423 385.127 289.392 384.669 288.019 384.669C286.531 384.669 285.501 385.012 284.585 385.699C283.784 386.385 283.326 387.301 283.326 388.331C283.326 389.361 283.67 390.162 284.471 390.734C285.272 391.306 286.073 391.649 287.218 391.878C288.248 392.107 289.278 392.336 290.423 392.565C291.453 392.794 292.368 393.251 293.169 394.167C293.856 394.968 294.314 396.112 294.314 397.6C294.314 399.202 293.742 400.461 292.483 401.491C291.224 402.521 289.736 402.978 287.676 403.093C285.73 403.093 284.127 402.521 282.868 401.491C281.724 400.461 280.923 399.088 280.694 397.371L280.808 397.142Z" fill="#5A3D22"/>
<path d="M344.904 381.891C344.904 380.06 345.476 378.458 346.62 377.199C347.765 375.941 349.253 375.254 351.084 375.254C352.916 375.254 354.404 375.826 355.548 376.97C356.693 378.115 357.265 379.602 357.265 381.319C357.265 383.036 356.807 384.523 355.777 385.782C354.747 387.041 353.145 388.071 350.741 388.986L357.952 396.997C359.096 395.051 359.783 392.763 359.669 390.131L359.44 387.613H361.156C361.271 388.414 361.385 389.215 361.385 390.131C361.385 393.22 360.584 395.967 359.096 398.37L363.102 402.718H360.813L358.066 399.743C356.006 402.146 353.373 403.291 350.169 403.291C347.765 403.291 345.819 402.604 344.446 401.231C343.072 399.857 342.386 398.141 342.386 396.081C342.386 392.762 344.217 390.245 347.88 388.414C345.819 386.125 344.789 383.951 344.789 381.891H344.904ZM350.169 401.574C352.801 401.574 355.09 400.544 356.922 398.37L349.139 389.673C347.536 390.474 346.277 391.275 345.476 392.305C344.675 393.335 344.217 394.593 344.331 396.081C344.331 397.798 344.904 399.171 345.934 400.086C346.964 401.002 348.452 401.574 350.283 401.574H350.169ZM346.62 381.777C346.62 382.692 346.849 383.608 347.193 384.409C347.536 385.21 348.223 386.24 349.367 387.384L349.596 387.613L350.626 387.155C352.458 386.354 353.831 385.553 354.518 384.638C355.205 383.837 355.548 382.692 355.548 381.205C355.548 379.831 355.09 378.801 354.289 378C353.488 377.199 352.343 376.856 351.084 376.856C349.711 376.856 348.681 377.314 347.88 378.115C347.078 378.916 346.735 380.175 346.735 381.548L346.62 381.777Z" fill="#5A3D22"/>
<path d="M373.976 397.142L375.578 396.799C375.807 398.172 376.379 399.316 377.295 400.118C378.21 400.919 379.469 401.262 380.957 401.262C382.56 401.262 383.704 400.919 384.62 400.232C385.536 399.545 385.879 398.63 385.879 397.485C385.879 396.341 385.536 395.54 384.735 394.968C383.933 394.396 383.132 394.052 382.102 393.824C381.072 393.595 380.042 393.366 379.012 393.137C377.982 392.908 377.066 392.45 376.265 391.649C375.464 390.848 375.12 389.818 375.12 388.445C375.12 386.957 375.692 385.699 376.837 384.669C377.982 383.639 379.469 383.067 381.301 383.067C383.018 383.067 384.391 383.524 385.536 384.554C386.566 385.584 387.253 386.843 387.481 388.331L385.879 388.674C385.765 387.53 385.192 386.614 384.506 385.813C383.704 385.127 382.674 384.669 381.301 384.669C379.813 384.669 378.783 385.012 377.982 385.699C377.18 386.385 376.723 387.301 376.723 388.331C376.723 389.361 377.066 390.162 377.867 390.734C378.668 391.306 379.47 391.649 380.614 391.878C381.644 392.107 382.674 392.336 383.819 392.565C384.849 392.794 385.765 393.251 386.566 394.167C387.253 394.968 387.71 396.112 387.71 397.6C387.71 399.202 387.138 400.461 385.879 401.491C384.62 402.521 383.132 402.978 381.072 403.093C379.126 403.093 377.524 402.521 376.265 401.491C375.12 400.461 374.319 399.088 374.09 397.371L373.976 397.142Z" fill="#5A3D22"/>
<path d="M393.433 388.788L391.945 388.331C392.632 384.783 394.921 383.067 398.927 383.067C401.331 383.067 403.047 383.639 404.192 385.012C405.337 386.271 405.909 387.987 405.909 390.276V398.859C405.909 399.774 406.023 400.346 406.367 400.69C406.596 401.033 407.053 401.147 407.74 401.147H408.084V402.75C407.969 402.75 407.74 402.75 407.511 402.75C406.596 402.75 405.909 402.521 405.337 401.948C404.764 401.376 404.421 400.575 404.421 399.316V399.088C403.734 400.346 402.819 401.376 401.674 402.063C400.415 402.749 399.041 403.093 397.554 403.093C395.608 403.093 394.12 402.635 393.09 401.605C392.06 400.575 391.487 399.202 391.487 397.485C391.487 394.281 393.548 392.336 397.897 391.764L404.421 390.848V390.162C404.421 386.5 402.59 384.669 398.927 384.669C395.837 384.669 394.12 386.042 393.548 388.903L393.433 388.788ZM404.306 392.336L398.011 393.251C396.18 393.48 394.921 393.938 394.12 394.625C393.319 395.311 392.975 396.227 392.975 397.371C392.975 398.859 393.433 399.889 394.349 400.461C395.264 401.033 396.295 401.376 397.439 401.376C399.614 401.376 401.216 400.69 402.475 399.316C403.734 397.943 404.306 396.57 404.306 394.968V392.336Z" fill="#5A3D22"/>
<path d="M413.692 387.108C415.065 384.133 417.355 382.759 420.559 382.645C423.077 382.645 425.138 383.56 426.511 385.506C427.885 387.451 428.686 389.854 428.686 392.601C428.686 395.347 427.999 397.75 426.626 399.696C425.252 401.641 423.192 402.671 420.674 402.671C417.469 402.671 415.18 401.184 413.806 398.323V402.213H412.204V373.833H413.692V387.108ZM415.409 386.765C414.264 388.367 413.692 390.312 413.692 392.715C413.692 395.118 414.264 397.064 415.523 398.666C416.782 400.268 418.385 401.069 420.33 401.069C422.391 401.069 423.993 400.268 425.252 398.666C426.511 397.064 427.083 395.118 427.083 392.715C427.083 390.312 426.511 388.367 425.252 386.765C423.993 385.163 422.391 384.362 420.33 384.362C418.27 384.362 416.668 385.163 415.523 386.765H415.409Z" fill="#5A3D22"/>
<path d="M446.77 396.913L448.258 397.6C447.685 399.316 446.655 400.575 445.396 401.605C444.137 402.635 442.535 403.093 440.704 403.093C438.071 403.093 436.011 402.177 434.523 400.232C433.035 398.287 432.348 395.883 432.348 393.137C432.348 390.391 433.149 388.102 434.637 386.042C436.125 384.097 438.186 383.067 440.704 383.067C443.107 383.067 445.167 383.982 446.655 385.813C448.143 387.644 448.83 389.933 448.944 392.679V393.48H434.18C434.18 395.769 434.981 397.6 436.125 399.088C437.27 400.575 438.987 401.262 440.933 401.262C442.42 401.262 443.679 400.804 444.71 400.003C445.74 399.202 446.541 398.058 446.999 396.684L446.77 396.913ZM440.704 384.898C438.872 384.898 437.384 385.584 436.125 386.957C434.981 388.331 434.294 390.047 434.065 392.107H447.228C446.999 389.933 446.426 388.216 445.282 386.843C444.137 385.584 442.649 384.898 440.704 384.898Z" fill="#5A3D22"/>
<path d="M461.649 383.776V385.493C461.649 385.493 461.191 385.493 460.848 385.493C459.246 385.493 457.987 386.065 456.956 387.209C455.926 388.354 455.468 389.841 455.468 391.901V403.116H453.981V384.005H455.468V387.095C455.926 386.18 456.613 385.493 457.529 384.806C458.444 384.12 459.703 383.776 461.191 383.776H461.764H461.649Z" fill="#5A3D22"/>
<path d="M477.787 396.913L479.275 397.6C478.703 399.316 477.673 400.575 476.414 401.605C475.155 402.635 473.553 403.093 471.721 403.093C469.089 403.093 467.029 402.177 465.541 400.232C464.053 398.287 463.366 395.998 463.366 393.137C463.366 390.391 464.167 388.102 465.655 386.042C467.143 384.097 469.203 383.067 471.721 383.067C474.125 383.067 476.185 383.982 477.673 385.813C479.161 387.644 479.848 389.933 479.962 392.679V393.48H465.197C465.197 395.769 465.998 397.6 467.143 399.088C468.402 400.575 470.004 401.262 471.95 401.262C473.438 401.262 474.697 400.804 475.727 400.003C476.757 399.202 477.559 398.058 478.016 396.684L477.787 396.913ZM471.721 384.898C469.89 384.898 468.402 385.584 467.143 386.957C465.998 388.331 465.312 390.047 465.083 392.107H478.245C478.016 389.933 477.444 388.216 476.3 386.843C475.155 385.584 473.667 384.898 471.721 384.898Z" fill="#5A3D22"/>
<path d="M483.281 397.142L484.884 396.799C485.113 398.172 485.685 399.316 486.601 400.118C487.516 400.919 488.775 401.262 490.263 401.262C491.866 401.262 493.01 400.919 493.926 400.232C494.841 399.545 495.185 398.63 495.185 397.485C495.185 396.341 494.841 395.54 494.04 394.968C493.239 394.396 492.438 394.052 491.408 393.824C490.378 393.595 489.348 393.366 488.317 393.137C487.287 392.908 486.372 392.45 485.57 391.649C484.769 390.848 484.426 389.818 484.426 388.445C484.426 386.957 484.998 385.699 486.143 384.669C487.287 383.639 488.775 383.067 490.607 383.067C492.323 383.067 493.697 383.524 494.841 384.554C495.872 385.584 496.558 386.843 496.787 388.331L495.185 388.674C495.07 387.53 494.498 386.614 493.811 385.813C493.01 385.127 491.98 384.669 490.607 384.669C489.119 384.669 488.089 385.012 487.287 385.699C486.486 386.385 486.028 387.301 486.028 388.331C486.028 389.361 486.372 390.162 487.173 390.734C487.974 391.306 488.775 391.649 489.92 391.878C490.95 392.107 491.98 392.336 493.125 392.565C494.155 392.794 495.07 393.251 495.872 394.167C496.558 394.968 497.016 396.112 497.016 397.6C497.016 399.202 496.444 400.461 495.185 401.491C493.926 402.521 492.438 402.978 490.378 403.093C488.432 403.093 486.829 402.521 485.57 401.491C484.426 400.461 483.625 399.088 483.396 397.371L483.281 397.142Z" fill="#5A3D22"/>
<path d="M285.797 355.22H261.876L260.846 77.4861H273.665L274.466 285.644C274.466 294.913 279.502 353.504 285.912 355.335L285.797 355.22Z" fill="#5A3D22"/>
<path d="M260.567 105.752C261.597 97.7411 261.826 89.6162 261.826 81.3769C261.597 82.6357 261.483 83.78 261.254 85.4966C260.681 84.4666 260.224 83.78 259.422 82.4068C257.591 88.0141 255.989 93.0493 254.272 98.4277C253.814 97.6267 253.242 96.5968 252.555 95.5668C251.868 96.139 251.525 96.3679 251.41 96.5968C249.465 101.289 247.404 106.095 245.344 111.016C244.772 110.558 244.2 109.986 243.055 109.07C242.826 112.618 242.597 115.707 242.368 119.14C241.338 118.339 240.537 117.538 239.507 116.623C238.706 119.598 238.019 122.23 237.218 125.434C236.646 124.519 236.188 123.832 235.501 122.802C234.471 125.434 233.555 127.838 232.525 130.355C229.664 122.574 230.122 109.413 233.441 98.771C236.073 90.4173 240.308 83.2079 246.145 76.5706C247.977 74.5108 249.007 71.7643 250.266 69.3612C249.923 69.1323 249.579 68.9035 249.35 68.6746C247.404 70.8489 245.344 73.0231 243.055 75.5407C243.627 72.9087 244.085 70.7344 244.429 68.5602C244.085 68.4457 243.856 68.3313 243.513 68.2169C240.995 73.252 238.477 78.1727 235.616 83.8945C236.188 80.0037 236.646 76.7995 237.103 73.7097C236.875 73.7097 236.646 73.5953 236.417 73.4809C233.441 81.0336 230.579 88.7007 227.604 96.2535C227.489 96.2535 227.375 96.2535 227.26 96.2535V86.7553C227.26 86.7553 227.031 86.6409 226.917 86.5265C225.429 90.5317 223.827 94.5369 222.339 98.6566C222.224 98.6566 222.11 98.6566 221.995 98.5422C222.339 95.1091 222.682 91.5616 223.14 88.1286C219.935 95.1091 219.134 102.891 215.586 109.986C208.718 102.319 213.411 84.8099 225.658 71.0777C224.742 71.0777 224.17 71.3066 223.025 71.421C224.513 69.4756 225.772 67.7591 227.031 66.157C226.917 65.9281 226.802 65.8137 226.688 65.5848C221.995 68.5602 217.303 71.5355 212.495 74.5108L211.923 74.1675C212.953 72.1077 213.869 70.0478 215.242 67.3014C210.321 70.5056 206.086 73.1376 201.851 75.884C201.622 75.6551 201.393 75.4263 201.164 75.1974C203.11 72.451 205.056 69.5901 207.001 66.8436C200.134 69.8189 195.098 75.083 190.291 80.6903C190.176 76.2273 193.381 69.0179 197.502 64.3261C205.514 55.1712 215.929 50.5938 227.718 49.2206C232.983 48.6484 238.248 48.7629 243.513 49.2206C246.947 49.4495 249.236 48.0763 252.326 45.3298C245.917 46.0164 240.537 46.4742 234.356 47.1608C237.332 45.3298 239.736 43.8422 242.14 42.469C242.14 42.3545 242.025 42.1256 241.911 42.0112C235.959 42.9267 230.007 43.8422 224.17 44.8721C224.055 44.6432 223.941 44.4144 223.827 44.1855C226.116 42.5834 228.29 40.8669 230.579 39.2648C230.579 39.1503 230.579 39.0359 230.465 38.807C225.314 39.9514 220.164 41.0957 215.013 42.2401C215.013 42.0112 214.784 41.7823 214.67 41.5535C217.646 39.4936 220.736 37.5482 223.712 35.4884C223.712 35.374 223.598 35.2595 223.483 35.1451C216.616 36.9761 209.634 38.807 201.851 40.8669C209.748 32.5131 219.019 30.11 229.32 30.4533C233.441 30.4533 237.561 30.4533 241.682 30.4533C241.682 29.9955 241.911 29.4234 241.911 28.9656C239.507 28.279 237.218 27.478 234.814 27.0202C232.411 26.5625 230.007 26.448 226.688 26.1047C228.977 24.9604 230.579 24.0449 232.182 23.2439C232.182 23.015 232.182 22.9005 232.182 22.6717H219.706C219.706 22.6717 219.706 22.0995 219.592 21.7562C221.652 21.0696 223.712 20.383 225.772 19.5819C225.772 19.3531 225.772 19.1242 225.772 18.7809H204.712V17.5221C214.899 10.7704 226.116 6.99407 238.706 9.0539C252.212 11.2282 258.621 21.7562 265.031 33.0853C266.175 29.6522 266.977 26.9058 268.007 24.0449C269.037 21.0696 270.181 17.9798 271.211 15.0045C272.585 11.1137 275.217 8.13842 278.994 6.53633C286.205 3.33215 293.53 -0.100906 301.771 1.27232C304.289 1.73006 306.693 2.75997 309.211 3.44658C309.211 3.78989 309.211 4.01876 309.211 4.36206C306.006 5.39198 302.801 6.4219 298.795 7.68068C301.199 8.13842 302.801 8.48173 304.976 9.0539C299.368 11.2282 294.446 13.0591 289.524 15.0045C289.524 15.2334 289.524 15.4623 289.524 15.6911H296.735C296.735 15.6911 296.735 16.0344 296.85 16.1489C292.5 18.3231 288.151 20.4974 283.916 22.6717C286.892 23.7016 289.639 24.1593 292.615 22.7861C306.235 16.6066 320.084 15.3478 334.162 21.5273C338.626 23.4727 342.289 26.5625 345.494 31.1399C340.114 30.11 335.192 29.1945 330.271 28.1646C330.271 28.3934 330.156 28.6223 330.042 28.8512C331.759 29.5378 333.361 30.2244 335.421 31.1399H322.03C322.03 31.1399 322.03 31.3687 322.03 31.5976C324.319 32.5131 326.608 33.543 328.897 34.4585C328.897 34.6874 328.897 34.9162 328.783 35.2595C322.831 34.9162 316.994 34.5729 311.042 34.1152C311.042 34.2296 311.042 34.4585 310.928 34.5729C312.873 35.374 314.934 36.0606 317.566 37.2049C310.47 37.6627 304.289 38.1204 297.994 38.5782C297.994 38.9215 297.994 39.1503 297.994 39.4936C300.398 40.0658 302.916 40.5236 305.663 41.0957C298.338 42.9267 290.669 41.0957 283.916 44.2999V45.3298C286.549 45.3298 289.181 45.902 291.699 45.5587C320.199 42.5834 334.62 67.988 330.385 88.4719C330.042 90.1884 329.47 91.7905 328.783 94.0792C326.265 90.3028 324.09 86.9842 321.801 83.4367C321.343 84.8099 321 86.1832 320.428 88.0141C318.482 84.3522 316.765 81.3769 314.705 77.6005C314.59 79.6604 314.476 81.0336 314.361 82.2924L313.56 82.7501C310.813 78.8593 307.952 74.9685 305.09 70.8489C305.09 71.9932 304.862 73.0231 304.747 74.053C304.518 74.053 304.289 74.2819 304.175 74.3963C302.572 71.5355 300.97 68.5602 299.024 65.0127V71.421C299.024 71.421 298.452 71.7643 298.223 71.8788C295.705 68.4457 293.187 65.0127 290.669 61.5796C290.44 61.5796 290.326 61.8085 290.097 61.9229C290.783 63.0673 291.241 64.4405 292.042 65.356C305.319 80.0037 306.121 104.493 295.133 121.658C294.904 121.887 294.904 122.23 294.446 123.146C293.073 118.339 291.814 114.334 290.326 109.413C289.753 111.931 289.41 113.648 289.067 115.364C288.723 115.364 288.494 115.364 288.151 115.364C287.35 110.901 286.663 106.438 285.747 100.831C284.832 103.12 284.259 104.607 283.687 106.095H283.115C282.428 101.289 281.741 96.4823 281.055 91.1039C279.796 93.7359 278.766 95.9101 277.621 97.97C277.392 97.97 277.163 97.7411 276.934 97.6267C277.392 92.3627 277.735 86.9842 278.193 81.7202C277.964 81.7202 277.85 81.6058 277.621 81.4913C276.476 83.6656 275.332 85.8399 274.187 88.0141C273.958 88.0141 273.729 88.0141 273.615 88.0141C273.386 84.5811 273.157 81.148 272.814 77.715C272.699 77.715 272.47 77.715 272.356 77.715C272.356 78.7449 272.013 79.7748 272.127 80.8047" fill="#5A3D22"/>
</svg>
